<?xml version="1.0" encoding="utf-8"?>
<!-- Generator: Adobe Illustrator 24.1.2, SVG Export Plug-In . SVG Version: 6.00 Build 0)  -->
<svg version="1.1" id="Layer_1" xmlns="http://www.w3.org/2000/svg" xmlns:xlink="http://www.w3.org/1999/xlink" x="0px" y="0px"
	 viewBox="0 0 3468 1010" style="enable-background:new 0 0 3468 1010;" xml:space="preserve">
<style type="text/css">
	.st0{fill:#00456A;}
	.st1{fill:url(#SVGID_1_);}
	.st2{filter:url(#blur);}
	.st3{fill:#FFFFFF;}
	.st4{fill:#F8981D;filter:url(#shadow);}
	.st5{fill:#006A98;}
	.st6{fill:#188479;}
	.st7{fill:#D47500;}
	.st8{display:none;fill:#006A98;}
</style>
<filter  id="shadow">
	<feGaussianBlur  in="SourceAlpha" result="shadow" stdDeviation="20"></feGaussianBlur>
	<feBlend  in="SourceGraphic" in2="shadow" mode="normal"></feBlend>
</filter>
<filter  id="blur">
	<feGaussianBlur  stdDeviation="8"></feGaussianBlur>
</filter>
<g>
	<rect x="194.1" y="196" class="st0" width="618" height="618"/>
	
		<radialGradient id="SVGID_1_" cx="-4094.3584" cy="1001.3048" r="0.5" gradientTransform="matrix(1000 0 0 -1000 4094861.5 1001809.8125)" gradientUnits="userSpaceOnUse">
		<stop  offset="0" style="stop-color:#FFFFFF"/>
		<stop  offset="0.53" style="stop-color:#FAC242"/>
		<stop  offset="1" style="stop-color:#F8981D"/>
	</radialGradient>
	<polygon class="st1" points="479.3,447.7 503.1,5 526.8,447.7 849.6,158.5 560.3,481.3 1003.1,505 560.3,528.7 849.6,851.5 
		526.8,562.3 503.1,1005 479.3,562.3 156.6,851.5 445.8,528.7 3.1,505 445.8,481.3 156.6,158.5 	"/>
	<g class="st2">
		<polygon class="st3" points="490.9,534.5 324.4,683.6 473.5,517.2 245.9,505 473.5,492.8 324.4,326.4 490.9,475.5 503.1,247.9 
			515.3,475.5 681.7,326.4 532.6,492.8 760.2,505 532.6,517.2 681.7,683.6 515.3,534.5 503.1,762.1 		"/>
	</g>
	<path class="st4" d="M156.6,158.5v693h693v-693H156.6z M812.1,814h-618V196h618V814z"/>
</g>
<image style="display:none;overflow:visible;" width="591" height="262" xlink:href="CGP - Logo_3x (1).png"  transform="matrix(1.7124 0 0 1.7124 1244.9404 435.6152)">
</image>
<g id="logo-text">
	<g id="cal">
		<path class="st5" d="M1286.1,92.4c-2.6,2.2-6.6,2.2-9.2-0.4c-15.4-15.8-40.1-29-59.5-29c-59.5,0-68,57.3-68,76.4
			s8.5,76.1,68.4,76.1c20.6,0,44.8-11.8,62.1-26.1c2.9-2.2,7-2.2,9.2,0.7l25.4,30.1c2.6,2.9,2.2,7.3-0.4,9.9
			c-26.8,25.4-57.7,41.5-96.7,41.5c-97.8,0-127.9-77.2-127.9-132.3c0-53.7,30.1-131.9,127.9-131.9c41.9,0,72.4,18,98.9,46.7
			c2.6,2.6,2.2,7-0.4,9.6L1286.1,92.4z"/>
		<path class="st5" d="M1591.1,262.5c1.5,2.6-0.7,5.9-3.7,5.9h-52.6c-4,0-7.7-2.6-9.2-6.2l-18.4-45.9h-75.7l-18.4,45.9
			c-1.5,3.7-5.1,6.2-9.2,6.2h-52.6c-2.9,0-5.1-3.3-4-5.9l112.8-248.4c1.5-3.7,5.1-5.9,8.8-5.9c3.7,0,7.3,2.2,8.8,5.9L1591.1,262.5z
			 M1449.9,170.3h38.6l-19.1-47.8L1449.9,170.3z"/>
		<path class="st5" d="M1687.6,213.7h86.4c3.7,0,6.6,2.9,6.6,6.6v41.5c0,3.7-2.9,6.6-6.6,6.6H1635c-3.7,0-6.6-2.9-6.6-6.6v-244
			c0-3.7,2.9-6.6,6.6-6.6h45.9c3.7,0,6.6,2.9,6.6,6.6V213.7z"/>
		<path class="st5" d="M1887,261.8c0,3.7-2.9,6.6-6.6,6.6h-45.6c-3.7,0-6.6-2.9-6.6-6.6v-244c0-3.7,2.9-6.6,6.6-6.6h45.6
			c3.7,0,6.6,2.9,6.6,6.6V261.8z"/>
		<path class="st5" d="M2007.8,168.8v93c0,3.7-2.9,6.6-6.6,6.6H1956c-3.7,0-6.6-2.9-6.6-6.6v-244c0-3.7,2.9-6.6,6.6-6.6h164.3
			c3.7,0,6.6,2.9,6.6,6.6v41.5c0,3.7-2.9,6.6-6.6,6.6h-112.5v48.1h86.7c3.7,0,6.6,2.9,6.6,6.6v41.5c0,3.7-2.9,6.6-6.6,6.6H2007.8z"
			/>
		<path class="st5" d="M2404.2,139.4c0,55.1-30.1,133-127.5,133c-97.8,0-127.9-77.9-127.9-133c0-53.7,30.1-132.7,127.9-132.7
			C2374.1,6.8,2404.2,85.8,2404.2,139.4z M2344.3,139.4c0-19.1-8.5-77.2-67.6-77.2c-59.5,0-68,58.1-68,77.2s8.5,77.9,68,77.9
			C2335.9,217.3,2344.3,158.5,2344.3,139.4z"/>
		<path class="st5" d="M2598.2,172.1l42.3,90.4c1.5,2.6-0.7,5.9-3.7,5.9h-51.1c-4,0-7.7-2.2-9.6-5.9l-37.5-80.5h-26.1v79.7
			c0,3.7-2.9,6.6-6.6,6.6h-45.2c-3.7,0-6.6-2.9-6.6-6.6v-244c0-3.7,2.9-6.6,6.6-6.6h91.9c71.3,0,93,50,93,84.9
			C2645.6,132.5,2625.8,158.5,2598.2,172.1z M2586.8,96.1c0-10.7-5.9-30.5-32.3-30.5h-41.9v61.4h43.4
			C2580.9,126.2,2586.8,105.6,2586.8,96.1z"/>
		<path class="st5" d="M2697.7,268.4c-3.7,0-6.6-2.9-6.6-6.6V13c0-2.9,2.2-5.5,5.1-5.5c3.7,0,7,1.5,9.6,3.7l139.7,130.5V17.8
			c0-3.7,2.9-6.6,6.6-6.6h45.6c3.7,0,6.6,2.9,6.6,6.6v247.7c0,2.6-2.2,4.8-4.8,4.8c-2.9,0-5.9-1.1-8.1-3.3l-141.1-133.4v128.3
			c0,3.7-2.9,6.6-6.6,6.6H2697.7z"/>
		<path class="st5" d="M3025.4,261.8c0,3.7-2.9,6.6-6.6,6.6h-45.6c-3.7,0-6.6-2.9-6.6-6.6v-244c0-3.7,2.9-6.6,6.6-6.6h45.6
			c3.7,0,6.6,2.9,6.6,6.6V261.8z"/>
		<path class="st5" d="M3310.5,262.5c1.5,2.6-0.7,5.9-3.7,5.9h-52.6c-4,0-7.7-2.6-9.2-6.2l-18.4-45.9H3151l-18.4,45.9
			c-1.5,3.7-5.1,6.2-9.2,6.2h-52.6c-2.9,0-5.1-3.3-4-5.9l112.8-248.4c1.5-3.7,5.1-5.9,8.8-5.9c3.7,0,7.3,2.2,8.8,5.9L3310.5,262.5z
			 M3169.4,170.3h38.6l-19.1-47.8L3169.4,170.3z"/>
	</g>
	<g id="grants">
		<path class="st6" d="M1211.9,546.9c-3.7,0-6.6-2.9-6.6-6.6v-40.8c0-3.7,2.9-6.6,6.6-6.6h94.8c3.7,0,6.6,2.9,6.6,6.6V591
			c0,4.4-1.8,8.5-4.8,11.4c-24.3,22.4-53.3,34.9-91.1,34.9c-97.8,0-127.9-77.2-127.9-132.3c0-53.7,30.1-131.9,127.9-131.9
			c39.3,0,68.4,15.4,93.3,40.1c2.6,2.6,2.6,7,0,9.6l-27.6,30.1c-2.6,2.6-6.6,2.6-9.2,0.4c-15.4-13.6-38.6-24.6-56.6-24.6
			c-59.5,0-68,56.6-68,75.7c0,19.1,8.5,78.6,68,78.6c12.5,0,28.3-4.4,36.7-10.7v-25.4H1211.9z"/>
		<path class="st6" d="M1506.9,537.7l42.3,90.4c1.5,2.6-0.7,5.9-3.7,5.9h-51.1c-4,0-7.7-2.2-9.6-5.9l-37.5-80.5h-26.1v79.7
			c0,3.7-2.9,6.6-6.6,6.6h-45.2c-3.7,0-6.6-2.9-6.6-6.6v-244c0-3.7,2.9-6.6,6.6-6.6h91.9c71.3,0,93,50,93,84.9
			C1554.3,498,1534.4,524.1,1506.9,537.7z M1495.5,461.6c0-10.7-5.9-30.5-32.3-30.5h-41.9v61.4h43.4
			C1489.6,491.8,1495.5,471.2,1495.5,461.6z"/>
		<path class="st6" d="M1820.2,628.1c1.5,2.6-0.7,5.9-3.7,5.9H1764c-4,0-7.7-2.6-9.2-6.2l-18.4-45.9h-75.7l-18.4,45.9
			c-1.5,3.7-5.1,6.2-9.2,6.2h-52.6c-2.9,0-5.1-3.3-4-5.9l112.8-248.4c1.5-3.7,5.1-5.9,8.8-5.9c3.7,0,7.3,2.2,8.8,5.9L1820.2,628.1z
			 M1679.1,535.9h38.6l-19.1-47.8L1679.1,535.9z"/>
		<path class="st6" d="M1870.9,634c-3.7,0-6.6-2.9-6.6-6.6V378.6c0-2.9,2.2-5.5,5.1-5.5c3.7,0,7,1.5,9.6,3.7l139.7,130.5V383.4
			c0-3.7,2.9-6.6,6.6-6.6h45.6c3.7,0,6.6,2.9,6.6,6.6v247.7c0,2.6-2.2,4.8-4.8,4.8c-2.9,0-5.9-1.1-8.1-3.3l-141.1-133.4v128.3
			c0,3.7-2.9,6.6-6.6,6.6H1870.9z"/>
		<path class="st6" d="M2180.9,431.5h-60.6c-3.7,0-6.6-2.9-6.6-6.6v-41.5c0-3.7,2.9-6.6,6.6-6.6h181.2c3.7,0,6.6,2.9,6.6,6.6v41.5
			c0,3.7-2.9,6.6-6.6,6.6h-61.4v195.9c0,3.7-2.9,6.6-6.6,6.6h-45.9c-3.7,0-6.6-2.9-6.6-6.6V431.5z"/>
		<path class="st6" d="M2529.6,557.2c0,44.8-39,79.7-95.2,79.7c-35.6,0-64.7-8.8-95.9-25c-3.3-1.5-4.4-5.5-2.9-8.8l20.2-37.5
			c1.5-3.3,5.5-4.4,8.8-2.9c23.5,10.7,46.3,19.1,67.6,19.1c19.1,0,35.3-9.2,35.3-22c0-16.2-19.8-23.2-44.1-30.9
			c-37.1-12.1-83.8-26.5-83.8-79.4c0-48.1,35.6-76.8,84.9-76.8c16.2,0,50,2.2,93,22c3.3,1.8,4.8,5.5,3.3,9.2l-16.5,37.9
			c-1.5,3.3-5.1,4.8-8.8,3.3c-16.2-5.9-46.7-16.9-67.3-16.9c-15.4,0-29.8,4.8-29.4,18.7c1.5,15.8,27.2,22.8,55.9,33.1
			C2490.3,492.5,2529.6,510.1,2529.6,557.2z"/>
	</g>
	<g id="portal">
		<path class="st7" d="M1172.3,992.6c0,3.7-2.9,6.6-6.6,6.6h-45.9c-3.7,0-6.6-2.9-6.6-6.6v-244c0-3.7,2.9-6.6,6.6-6.6h92.6
			c71.3,0,93,50,93,84.9c0,51.5-45.2,86-88.6,86h-44.5V992.6z M1246.5,826.8c0-10.7-5.9-30.5-32.3-30.5h-41.9v61.4h43
			C1240.6,857,1246.5,836.4,1246.5,826.8z"/>
		<path class="st7" d="M1593.7,870.2c0,55.1-30.1,133-127.5,133c-97.8,0-127.9-77.9-127.9-133c0-53.7,30.1-132.7,127.9-132.7
			C1563.6,737.5,1593.7,816.5,1593.7,870.2z M1533.8,870.2c0-19.1-8.5-77.2-67.6-77.2c-59.5,0-68,58.1-68,77.2
			c0,19.1,8.5,77.9,68,77.9C1525.3,948.1,1533.8,889.3,1533.8,870.2z"/>
		<path class="st7" d="M1785.4,902.9l42.3,90.4c1.5,2.6-0.7,5.9-3.7,5.9h-51.1c-4,0-7.7-2.2-9.6-5.9l-37.5-80.5h-26.1v79.7
			c0,3.7-2.9,6.6-6.6,6.6H1648c-3.7,0-6.6-2.9-6.6-6.6v-244c0-3.7,2.9-6.6,6.6-6.6h91.9c71.3,0,93,50,93,84.9
			C1832.8,863.2,1813,889.3,1785.4,902.9z M1774,826.8c0-10.7-5.9-30.5-32.3-30.5h-41.9v61.4h43.4C1768.2,857,1774,836.4,1774,826.8
			z"/>
		<path class="st7" d="M1922.4,796.7h-60.6c-3.7,0-6.6-2.9-6.6-6.6v-41.5c0-3.7,2.9-6.6,6.6-6.6H2043c3.7,0,6.6,2.9,6.6,6.6v41.5
			c0,3.7-2.9,6.6-6.6,6.6h-61.4v195.9c0,3.7-2.9,6.6-6.6,6.6H1929c-3.7,0-6.6-2.9-6.6-6.6V796.7z"/>
		<path class="st7" d="M2275.5,993.3c1.5,2.6-0.7,5.9-3.7,5.9h-52.6c-4,0-7.7-2.6-9.2-6.2l-18.4-45.9H2116l-18.4,45.9
			c-1.5,3.7-5.1,6.2-9.2,6.2h-52.6c-2.9,0-5.1-3.3-4-5.9l112.8-248.4c1.5-3.7,5.1-5.9,8.8-5.9c3.7,0,7.3,2.2,8.8,5.9L2275.5,993.3z
			 M2134.4,901.1h38.6l-19.1-47.8L2134.4,901.1z"/>
		<path class="st7" d="M2374.2,944.4h86.4c3.7,0,6.6,2.9,6.6,6.6v41.5c0,3.7-2.9,6.6-6.6,6.6h-138.9c-3.7,0-6.6-2.9-6.6-6.6v-244
			c0-3.7,2.9-6.6,6.6-6.6h45.9c3.7,0,6.6,2.9,6.6,6.6V944.4z"/>
	</g>
</g>
<path class="st8" d="M1118.9,68.6c0-1.6,3.5-3,7.8-3h53.5c4.3,0,7.8,1.3,7.8,3v109.6c0,1.6-3.5,3-7.8,3h-53.5c-4.3,0-7.8-1.3-7.8-3
	V68.6z"/>
</svg>
